<svg width="1143" height="494" viewBox="0 0 1143 494" fill="none" xmlns="http://www.w3.org/2000/svg">
<g clip-path="url(#clip0_0_1)">
<g clip-path="url(#clip1_0_1)">
<g clip-path="url(#clip2_0_1)">
<path d="M1140.54 182.961C1135.81 151.726 1122.31 143.044 1122.31 143.044C1080.88 110.873 1029.18 117.806 982.733 122.43C900.729 122.617 819.056 129.486 737.24 133.174C565.515 133.735 392.32 124.492 221.447 147.289C205.395 154.288 119.129 148.664 138.636 186.959C143.749 202.888 162.406 220.569 161.836 235.185C164.392 237.747 167.944 231.874 169.459 235.559C174.763 245.493 183.426 240.809 190.53 246.681C180.633 262.358 187.734 275.415 194.505 289.095C182.575 292.658 167.282 290.97 160.417 302.775C159.707 311.335 155.872 309.713 151.658 309.335C148.58 309.087 142.377 310.022 143.418 312.71C146.97 321.892 131.723 327.203 141.287 336.199C134.707 345.942 145.835 354.376 144.32 364.933C144.129 367.056 145.17 368.87 146.828 369.37C154.166 372.054 143.467 377.304 144.602 382.989C219.884 421.845 301.557 394.981 378.685 412.85C398.711 400.353 383.655 417.282 391.658 414.659C397.907 411.597 402.452 424.281 409.508 417.095C410.597 415.034 408.94 410.162 412.82 411.097C414.857 411.597 416.658 411.475 416.94 408.6C417.368 404.29 413.628 406.977 412.632 404.729C423.38 393.359 420.729 420.406 430.813 419.283C430.339 415.973 427.406 411.223 433.417 411.849C439.383 407.1 439.572 403.163 444.876 413.846C445.064 416.16 446.011 417.783 447.527 418.909C464.098 407.287 480.575 423.029 497.951 417.783C508.605 412.036 518.831 420.906 529.625 418.722C533.414 416.969 537.248 413.846 540.895 419.096C585.542 420.218 633.124 415.534 675.454 419.283C788.564 412.285 909.44 422.154 1028.71 412.911C1056.83 409.348 1086.04 404.29 1113.46 400.227C1113.46 400.227 1135.66 389.109 1135.66 339.135C1135.66 289.16 1140.4 295.407 1141.11 255.611C1141.82 215.819 1145.13 214.197 1140.4 182.961H1140.54Z" fill="white"/>
<g clip-path="url(#clip3_0_1)">
<path d="M291.809 318.403H278.747V241.736L277.814 227.745L278.747 219.351H291.809V318.403ZM318.868 318.403H304.872V241.875L303.006 227.885L304.872 219.491H316.162L338.742 268.737L343.22 280.349H344.153V219.491H357.869V227.885L356.936 241.875V318.403H346.206L318.868 257.965H317.935V266.359L318.868 318.403ZM400.677 318.403H384.367L367.573 241.596L364.773 227.745V219.351H378.583L391.738 297.138H393.605L406.574 219.351H420.196V227.745L417.397 241.596L400.677 318.403ZM473.548 318.403H428.948L427.082 310.009L428.948 296.019V219.351H471.308L475.974 223.548L470.749 238.937L461.418 237.538H441.824V259.224H467.016V276.712H457.873L441.824 275.313V300.216H471.682L479.053 309.449L473.548 318.403ZM500.513 318.403H486.517V241.875L484.651 227.885L486.517 219.491H497.807L520.387 268.737L524.865 280.349H525.798V219.491H539.514V227.885L538.581 241.875V318.403H527.851L500.513 257.965H499.58V266.359L500.513 318.403ZM581.034 318.403H567.972V237.259L547.445 238.658V219.351H602.028V238.658L581.034 237.259V296.019L582.061 310.009L581.034 318.403ZM634.778 319.802C631.294 319.802 627.886 319.075 624.552 317.62C621.23 316.183 618.232 313.6 615.557 309.869C612.882 306.138 610.767 300.962 609.212 294.34C607.657 287.718 606.88 279.23 606.88 268.877C606.88 258.524 607.657 250.037 609.212 243.414C610.767 236.792 612.882 231.616 615.557 227.885C618.232 224.154 621.23 221.561 624.552 220.106C627.886 218.67 631.294 217.952 634.778 217.952C638.448 217.952 641.944 218.698 645.265 220.19C648.599 221.683 651.573 224.294 654.185 228.025C656.798 231.756 658.863 236.932 660.381 243.554C661.911 250.176 662.676 258.617 662.676 268.877C662.676 279.137 661.911 287.578 660.381 294.2C658.863 300.822 656.798 305.998 654.185 309.729C651.573 313.46 648.599 316.072 645.265 317.564C641.944 319.056 638.448 319.802 634.778 319.802ZM634.778 300.216C638.697 300.216 641.651 298.975 643.642 296.494C645.632 294.032 646.982 290.441 647.691 285.722C648.413 281.021 648.773 275.406 648.773 268.877C648.773 262.255 648.413 256.612 647.691 251.949C646.982 247.285 645.632 243.713 643.642 241.232C641.651 238.77 638.697 237.538 634.778 237.538C630.921 237.538 627.979 238.798 625.951 241.316C623.936 243.834 622.586 247.425 621.902 252.089C621.218 256.752 620.875 262.348 620.875 268.877C620.875 275.313 621.218 280.881 621.902 285.582C622.586 290.301 623.936 293.92 625.951 296.438C627.979 298.957 630.921 300.216 634.778 300.216ZM687.29 318.403H674.227V241.875L672.361 227.745L674.227 219.351H696.62C701.161 219.351 705.254 220.405 708.899 222.513C712.532 224.602 715.424 228.137 717.576 233.117C719.716 238.117 720.786 245 720.786 253.767C720.786 262.068 719.747 268.691 717.67 273.634C715.579 278.577 712.699 282.261 709.03 284.686L711.735 288.324L720.039 302.874L725.358 310.009V318.403H708.096L695.034 288.604H687.29V295.879L688.223 309.869L687.29 318.403ZM686.357 237.538L687.29 270.836H696.433C700.539 270.836 703.338 269.222 704.831 265.995C706.324 262.787 707.07 258.711 707.07 253.767C707.07 248.544 706.28 244.534 704.7 241.736C703.108 238.937 700.228 237.538 696.06 237.538H686.357ZM758.201 318.403H745.045V276.432L723.865 227.745V219.351H739.54L750.737 255.166H752.603L763.706 219.351H779.568V227.745L757.641 277.271L758.201 291.402V318.403ZM853.558 318.403H810.731L808.865 310.009L810.731 296.019V219.351H823.794V276.852L822.861 300.216H824.727L845.161 298.817L851.785 297.418L858.13 309.449L853.558 318.403ZM878.452 318.403H865.389V241.736L864.456 227.745L865.389 219.351H878.452V318.403ZM919.972 318.403H906.91V237.259L886.383 238.658V219.351H940.966V238.658L919.972 237.259V296.019L920.999 310.009L919.972 318.403ZM995.362 318.403H950.763L948.897 310.009L950.763 296.019V219.351H993.123L997.788 223.548L992.563 238.937L983.233 237.538H963.639V259.224H988.831V276.712H979.687L963.639 275.313V300.216H993.496L1000.87 309.449L995.362 318.403Z" fill="#067B82"/>
</g>
</g>
</g>
</g>
<path d="M7.17769 267.576C3.20843 268.007 0.298073 271.1 0.665342 274.481L1.33068 280.606C1.69795 283.987 5.20445 286.383 9.17371 285.951C13.143 285.52 16.0533 282.428 15.6861 279.047L15.0207 272.921C14.6534 269.54 11.1469 267.145 7.17769 267.576Z" fill="white"/>
<path d="M50.1777 473.78C46.2084 474.211 43.2981 477.303 43.6653 480.684L44.3307 486.81C44.698 490.191 48.2045 492.586 52.1737 492.155C56.143 491.724 59.0533 488.631 58.6861 485.25L58.0207 479.125C57.6534 475.744 54.1469 473.348 50.1777 473.78Z" fill="white"/>
<path d="M66.1777 386.78C62.2084 387.211 59.2981 390.303 59.6653 393.684L60.3307 399.81C60.698 403.191 64.2045 405.586 68.1737 405.155C72.143 404.724 75.0533 401.631 74.6861 398.25L74.0207 392.125C73.6534 388.744 70.1469 386.348 66.1777 386.78Z" fill="white"/>
<path d="M72.3586 187.586C69.3953 187.967 67.2225 190.697 67.4967 193.682L67.9934 199.09C68.2676 202.075 70.8855 204.19 73.8488 203.81C76.8121 203.429 78.9848 200.699 78.7107 197.713L78.2139 192.306C77.9397 189.321 75.3219 187.206 72.3586 187.586Z" fill="white"/>
<path d="M84.3037 233.496C81.3404 233.876 79.1676 236.607 79.4418 239.592L79.9385 244.999C80.2127 247.985 82.8305 250.099 85.7938 249.719C88.7572 249.338 90.9299 246.608 90.6557 243.623L90.159 238.215C89.8848 235.23 87.267 233.115 84.3037 233.496Z" fill="white"/>
<path d="M96.2487 283.819C93.2854 284.2 91.1127 286.93 91.3869 289.915L91.8836 295.323C92.1578 298.308 94.7756 300.423 97.7389 300.043C100.702 299.662 102.875 296.931 102.601 293.946L102.104 288.539C101.83 285.554 99.2121 283.439 96.2487 283.819Z" fill="white"/>
<path d="M122.379 395.944C119.415 396.325 117.242 399.055 117.517 402.04L118.013 407.448C118.288 410.433 120.905 412.548 123.869 412.167C126.832 411.787 129.005 409.056 128.731 406.071L128.234 400.663C127.96 397.678 125.342 395.563 122.379 395.944Z" fill="white"/>
<g filter="url(#filter0_b_0_1)">
<path fill-rule="evenodd" clip-rule="evenodd" d="M103.629 35.1512C103.197 30.2904 105.275 25.4071 109.406 21.5756C113.537 17.7441 119.383 15.2783 125.657 14.7206L267.597 2.10296C273.871 1.54523 280.06 2.94129 284.802 5.98403C289.544 9.02677 292.451 13.4669 292.883 18.3278L305.917 164.95C306.349 169.81 304.271 174.694 300.14 178.525C296.009 182.357 290.163 184.823 283.889 185.38L141.949 197.998C135.675 198.556 129.486 197.16 124.744 194.117C120.002 191.074 117.095 186.634 116.663 181.773L103.629 35.1512ZM269.226 20.4307L127.286 33.0483L140.32 179.67L282.26 167.053L269.226 20.4307ZM195.16 52.5345C197.531 54.0559 198.984 56.2756 199.2 58.7055C199.416 61.1354 198.377 63.5766 196.312 65.4922L174.889 85.3427C172.307 87.7352 168.656 89.2748 164.736 89.6232C160.817 89.9716 156.951 89.1002 153.988 87.2006L142.812 80.0293C141.607 79.2844 140.616 78.3533 139.897 77.2904C139.177 76.2274 138.744 75.054 138.622 73.8384C138.501 72.6229 138.693 71.3896 139.187 70.2105C139.682 69.0314 140.469 67.9302 141.503 66.971C142.537 66.0119 143.798 65.214 145.21 64.624C146.623 64.0341 148.16 63.6637 149.731 63.5347C151.303 63.4057 152.877 63.5205 154.363 63.8725C155.849 64.2245 157.216 64.8066 158.385 65.5848L162.861 68.4566L178.434 54.0121C180.5 52.097 183.422 50.8645 186.558 50.5857C189.695 50.3069 192.79 51.0137 195.16 52.5345ZM214.157 71.5073C213.941 69.0769 214.98 66.6353 217.046 64.7195C219.111 62.8038 222.034 61.5709 225.171 61.292L248.828 59.1891C251.965 58.9102 255.059 59.6082 257.43 61.1296C259.801 62.651 261.255 64.8711 261.471 67.3015C261.687 69.7319 260.648 72.1735 258.582 74.0893C256.517 76.005 253.594 77.2379 250.457 77.5168L226.8 79.6197C223.663 79.8986 220.569 79.2006 218.198 77.6792C215.827 76.1578 214.374 73.9378 214.157 71.5073ZM146.853 119.054C146.529 115.408 148.088 111.745 151.186 108.872C154.284 105.998 158.668 104.149 163.374 103.731L187.03 101.628C191.736 101.209 196.378 102.256 199.934 104.538C203.491 106.82 205.671 110.151 205.995 113.796L207.624 132.124C207.948 135.77 206.39 139.432 203.291 142.306C200.193 145.179 195.809 147.029 191.103 147.447L167.447 149.55C162.741 149.968 158.1 148.921 154.543 146.639C150.986 144.357 148.806 141.027 148.482 137.381L146.853 119.054ZM170.917 121.533L171.732 130.696L183.56 129.645L182.745 120.481L170.917 121.533ZM218.638 121.909C218.422 119.478 219.461 117.037 221.526 115.121C223.592 113.205 226.515 111.972 229.652 111.693L253.308 109.59C256.445 109.311 259.54 110.01 261.911 111.531C264.282 113.052 265.735 115.272 265.951 117.703C266.167 120.133 265.128 122.575 263.063 124.491C260.997 126.406 258.075 127.639 254.938 127.918L231.281 130.021C228.144 130.3 225.049 129.602 222.678 128.08C220.307 126.559 218.854 124.339 218.638 121.909Z" fill="white"/>
<path d="M195.431 52.1137L195.43 52.1136C192.956 50.5265 189.748 49.8001 186.514 50.0876C183.281 50.375 180.251 51.6461 178.094 53.6455L178.094 53.6455L162.805 67.8266L158.659 65.1662C157.437 64.3536 156.015 63.75 154.479 63.3859C152.94 63.0214 151.313 62.9032 149.69 63.0364C148.068 63.1696 146.48 63.5519 145.018 64.1627C143.555 64.7734 142.244 65.602 141.163 66.6044C140.082 67.607 139.251 68.7658 138.726 70.0171C138.201 71.2692 137.994 72.5859 138.125 73.8883C138.255 75.1906 138.719 76.4426 139.483 77.5706C140.245 78.6968 141.288 79.6746 142.545 80.4524C142.547 80.4531 142.548 80.4539 142.549 80.4546L153.718 87.6215L153.718 87.6216C156.786 89.588 160.765 90.4782 164.781 90.1212C168.797 89.7643 172.556 88.1861 175.229 85.7095L196.652 65.859L196.652 65.8588C198.811 63.8564 199.929 61.2702 199.698 58.6612C199.466 56.0523 197.908 53.704 195.431 52.1137ZM109.066 21.209C104.842 25.1273 102.683 30.1556 103.131 35.1955L116.165 181.817C116.613 186.857 119.624 191.426 124.474 194.538C129.32 197.647 135.622 199.062 141.993 198.496L283.933 185.878C290.304 185.312 296.258 182.808 300.48 178.892C304.704 174.974 306.863 169.945 306.415 164.905L293.381 18.2835C292.933 13.2436 289.921 8.67486 285.072 5.56321C280.226 2.45356 273.924 1.0386 267.553 1.60493L125.612 14.2225C119.242 14.7888 113.288 17.2933 109.066 21.209ZM127.828 33.502L268.772 20.973L281.718 166.599L140.773 179.128L127.828 33.502ZM216.706 64.353C214.547 66.3555 213.427 68.9421 213.659 71.5516C213.891 74.1611 215.45 76.5098 217.928 78.1C220.403 79.6883 223.611 80.4052 226.845 80.1178L250.501 78.0148C253.735 77.7274 256.766 76.4559 258.923 74.4559C261.082 72.4533 262.201 69.8667 261.969 67.2572C261.737 64.6477 260.179 62.2991 257.7 60.7088C255.225 59.1205 252.017 58.4036 248.784 58.691L225.127 60.794C221.893 61.0814 218.862 62.3529 216.706 64.353ZM150.846 108.505C147.654 111.466 146.015 115.273 146.355 119.098L147.984 137.426C148.324 141.25 150.609 144.709 154.273 147.06C157.934 149.409 162.689 150.475 167.491 150.048L191.148 147.945C195.95 147.518 200.442 145.63 203.631 142.672C206.823 139.712 208.462 135.904 208.122 132.08L206.493 113.752C206.153 109.927 203.868 106.469 200.204 104.118C196.543 101.769 191.788 100.703 186.986 101.13L163.329 103.232C158.527 103.659 154.035 105.547 150.846 108.505ZM183.018 129.191L172.185 130.154L171.459 121.986L182.292 121.023L183.018 129.191ZM221.186 114.754C219.027 116.757 217.908 119.343 218.14 121.953C218.372 124.562 219.93 126.911 222.408 128.501C224.884 130.09 228.091 130.806 231.325 130.519L254.982 128.416C258.216 128.129 261.247 126.857 263.403 124.857C265.562 122.855 266.681 120.268 266.449 117.658C266.217 115.049 264.659 112.7 262.181 111.11C259.706 109.522 256.498 108.805 253.264 109.092L229.607 111.195C226.374 111.483 223.343 112.754 221.186 114.754Z" stroke="white"/>
</g>
<defs>
<filter id="filter0_b_0_1" x="98.573" y="-3.01733" width="212.4" height="206.135" filterUnits="userSpaceOnUse" color-interpolation-filters="sRGB">
<feFlood flood-opacity="0" result="BackgroundImageFix"/>
<feGaussianBlur in="BackgroundImageFix" stdDeviation="2"/>
<feComposite in2="SourceAlpha" operator="in" result="effect1_backgroundBlur_0_1"/>
<feBlend mode="normal" in="SourceGraphic" in2="effect1_backgroundBlur_0_1" result="shape"/>
</filter>
<clipPath id="clip0_0_1">
<rect width="1007.12" height="375.312" fill="white" transform="translate(135.782 118.421)"/>
</clipPath>
<clipPath id="clip1_0_1">
<rect width="1007.12" height="375.312" fill="white" transform="translate(135.782 118.421)"/>
</clipPath>
<clipPath id="clip2_0_1">
<rect width="1007.12" height="300.912" fill="white" transform="translate(135.782 118.421)"/>
</clipPath>
<clipPath id="clip3_0_1">
<rect width="723.109" height="101.851" fill="white" transform="translate(277.786 217.952)"/>
</clipPath>
</defs>
</svg>
